# xmcd
#
# Track frame offsets: 
#        150
#        17712
#        35543
#        50181
#        63914
#        81361
#        95644
#        118035
#        140397
#        156891
#        171499
#
# Disc length: 2546 seconds
#
# Revision: 0
# Processed by: cddbd v1.5.2PL0 Copyright (c) Steve Scherf et al.
# Submitted via: ExactAudioCopy v0.99pb5
#
DISCID=9a09f00b
DTITLE=Marshall Ford Swing Band - Live at Lambert's
DYEAR=1900
DGENRE=Country
TTITLE0=Boot Heel Drag
TTITLE1=Stompin' at the Savoy
TTITLE2=Feelin' Blue for Texas
TTITLE3=Bring it on Down
TTITLE4=Fraulein
TTITLE5=Mowin' the Grass
TTITLE6=Poor Butterfly
TTITLE7=In a Sentimental Mood
TTITLE8=Palm Springs Jump
TTITLE9=Too Lazy
TTITLE10=Back Bay Shuffle
EXTD=
EXTT0=
EXTT1=
EXTT2=
EXTT3=
EXTT4=
EXTT5=
EXTT6=
EXTT7=
EXTT8=
EXTT9=
EXTT10=
PLAYORDER=
